<?xml version="1.0" encoding="UTF-8" standalone="no"?> <svg xmlns="http://www.w3.org/2000/svg" xmlns:xlink="http://www.w3.org/1999/xlink" viewBox="0 0 64 64"><defs><style>.cls-1{fill:url(#linear-gradient);}</style><linearGradient id="linear-gradient" x1="7.25" y1="32" x2="56.75" y2="32" gradientUnits="userSpaceOnUse"><stop offset="0" stop-color="#ffd746"/><stop offset="0.58" stop-color="#ffb04a"/><stop offset="1" stop-color="#ff984c"/></linearGradient></defs><g id="Layer_82" data-name="Layer 82"><path class="cls-1" d="M52.5,5.75h-41A4.26,4.26,0,0,0,7.25,10V54a4.26,4.26,0,0,0,4.25,4.25h41A4.26,4.26,0,0,0,56.75,54V10A4.26,4.26,0,0,0,52.5,5.75Zm-32.75,25h-10v-10h10Zm-10,2.5h10v10h-10ZM22.25,44.5V8.25h19.5v47.5H22.25Zm32-13.75h-10v-10h10Zm-10,2.5h10v10h-10ZM54.25,10v8.25h-10v-10H52.5A1.76,1.76,0,0,1,54.25,10ZM11.5,8.25h8.25v10h-10V10A1.76,1.76,0,0,1,11.5,8.25ZM9.75,54V45.75h10v10H11.5A1.76,1.76,0,0,1,9.75,54ZM52.5,55.75H44.25v-10h10V54A1.76,1.76,0,0,1,52.5,55.75Z"/></g></svg>